<svg xmlns="http://www.w3.org/2000/svg" viewBox="0 0 1600 900" fill="none">
  <rect width="1600" height="900" fill="#0F1117"/>
  <!-- Flow nodes -->
  <rect x="120" y="380" width="160" height="80" rx="12" fill="#161820" stroke="#0ABFBC" stroke-width="1.5"/>
  <rect x="136" y="396" width="80" height="8" rx="4" fill="#0ABFBC" opacity="0.8"/>
  <rect x="136" y="412" width="100" height="6" rx="3" fill="#ffffff" opacity="0.2"/>
  <rect x="136" y="424" width="80" height="6" rx="3" fill="#ffffff" opacity="0.12"/>
  <line x1="280" y1="420" x2="380" y2="420" stroke="#0ABFBC" stroke-width="2" opacity="0.4"/>
  <polygon points="380,414 394,420 380,426" fill="#0ABFBC" opacity="0.4"/>
  <rect x="394" y="380" width="160" height="80" rx="12" fill="#161820" stroke="#252830" stroke-width="1"/>
  <rect x="410" y="396" width="80" height="8" rx="4" fill="#ffffff" opacity="0.35"/>
  <rect x="410" y="412" width="100" height="6" rx="3" fill="#ffffff" opacity="0.15"/>
  <line x1="554" y1="420" x2="654" y2="420" stroke="#0ABFBC" stroke-width="2" opacity="0.4"/>
  <polygon points="654,414 668,420 654,426" fill="#0ABFBC" opacity="0.4"/>
  <!-- Friction point marker -->
  <circle cx="671" cy="420" r="28" fill="#F97B5B" opacity="0.15"/>
  <circle cx="671" cy="420" r="28" stroke="#F97B5B" stroke-width="1.5" opacity="0.5"/>
  <rect x="668" y="380" width="160" height="80" rx="12" fill="#161820" stroke="#F97B5B" stroke-width="1.5"/>
  <rect x="684" y="396" width="80" height="8" rx="4" fill="#F97B5B" opacity="0.8"/>
  <rect x="684" y="412" width="100" height="6" rx="3" fill="#ffffff" opacity="0.15"/>
  <line x1="828" y1="420" x2="928" y2="420" stroke="#0ABFBC" stroke-width="2" opacity="0.4"/>
  <polygon points="928,414 942,420 928,426" fill="#0ABFBC" opacity="0.4"/>
  <rect x="942" y="380" width="160" height="80" rx="12" fill="#161820" stroke="#252830" stroke-width="1"/>
  <rect x="958" y="396" width="80" height="8" rx="4" fill="#ffffff" opacity="0.35"/>
  <rect x="958" y="412" width="100" height="6" rx="3" fill="#ffffff" opacity="0.15"/>
  <line x1="1102" y1="420" x2="1202" y2="420" stroke="#0ABFBC" stroke-width="2" opacity="0.4"/>
  <polygon points="1202,414 1216,420 1202,426" fill="#0ABFBC" opacity="0.4"/>
  <!-- Aha moment -->
  <circle cx="1296" cy="420" r="60" fill="#0ABFBC" opacity="0.08"/>
  <circle cx="1296" cy="420" r="60" stroke="#0ABFBC" stroke-width="1.5" opacity="0.4"/>
  <rect x="1216" y="380" width="160" height="80" rx="12" fill="#161820" stroke="#0ABFBC" stroke-width="2"/>
  <rect x="1232" y="392" width="80" height="8" rx="4" fill="#0ABFBC"/>
  <rect x="1232" y="408" width="60" height="6" rx="3" fill="#0ABFBC" opacity="0.5"/>
  <text x="1296" y="470" font-family="system-ui, sans-serif" font-size="11" fill="#0ABFBC" opacity="0.6" text-anchor="middle">AHA MOMENT</text>
  <!-- Progress bar -->
  <rect x="120" y="540" width="1360" height="6" rx="3" fill="#1E2130"/>
  <rect x="120" y="540" width="800" height="6" rx="3" fill="#0ABFBC" opacity="0.5"/>
  <!-- Panel -->
  <rect x="120" y="180" width="320" height="160" rx="12" fill="#161820" stroke="#252830" stroke-width="1"/>
  <rect x="140" y="200" width="120" height="8" rx="4" fill="#0ABFBC" opacity="0.6"/>
  <rect x="140" y="220" width="260" height="6" rx="3" fill="#ffffff" opacity="0.12"/>
  <rect x="140" y="236" width="200" height="6" rx="3" fill="#ffffff" opacity="0.08"/>
  <rect x="140" y="260" width="80" height="24" rx="6" fill="#F97B5B" opacity="0.2"/>
  <rect x="140" y="260" width="80" height="24" rx="6" stroke="#F97B5B" stroke-width="1" opacity="0.4"/>
  <rect x="232" y="260" width="80" height="24" rx="6" fill="#0ABFBC" opacity="0.15"/>
  <rect x="232" y="260" width="80" height="24" rx="6" stroke="#0ABFBC" stroke-width="1" opacity="0.4"/>
  <text x="800" y="820" font-family="system-ui, -apple-system, sans-serif" font-size="18" fill="#ffffff" opacity="0.2" text-anchor="middle" letter-spacing="4">ACTIVATION SIMULATOR · PROTOTYPE</text>
</svg>
