<svg xmlns="http://www.w3.org/2000/svg" viewBox="0 0 1600 900" fill="none">
  <rect width="1600" height="900" fill="#0F1117"/>
  <!-- App screenshot mockup -->
  <rect x="120" y="100" width="900" height="700" rx="16" fill="#161820" stroke="#252830" stroke-width="1"/>
  <!-- Mock app UI -->
  <rect x="140" y="120" width="860" height="56" rx="8" fill="#1E2130"/>
  <rect x="160" y="136" width="120" height="10" rx="5" fill="#ffffff" opacity="0.4"/>
  <rect x="800" y="136" width="80" height="28" rx="6" fill="#0ABFBC" opacity="0.2"/>
  <rect x="140" y="192" width="860" height="580" rx="8" fill="#13151D"/>
  <!-- Annotation overlays -->
  <!-- Friction point 1 -->
  <rect x="160" y="212" width="280" height="160" rx="8" fill="#1A1D26"/>
  <rect x="160" y="212" width="280" height="160" rx="8" stroke="#F97B5B" stroke-width="2" opacity="0.7"/>
  <rect x="180" y="232" width="140" height="10" rx="5" fill="#ffffff" opacity="0.4"/>
  <rect x="180" y="252" width="200" height="8" rx="4" fill="#ffffff" opacity="0.2"/>
  <rect x="180" y="268" width="160" height="8" rx="4" fill="#ffffff" opacity="0.15"/>
  <rect x="180" y="296" width="100" height="32" rx="6" fill="#1E2130"/>
  <rect x="292" y="296" width="100" height="32" rx="6" fill="#1E2130"/>
  <!-- Annotation bubble 1 -->
  <rect x="400" y="200" width="220" height="80" rx="10" fill="#F97B5B" opacity="0.15"/>
  <rect x="400" y="200" width="220" height="80" rx="10" stroke="#F97B5B" stroke-width="1.5" opacity="0.6"/>
  <rect x="416" y="216" width="60" height="8" rx="4" fill="#F97B5B" opacity="0.8"/>
  <rect x="416" y="232" width="160" height="6" rx="3" fill="#ffffff" opacity="0.25"/>
  <rect x="416" y="246" width="120" height="6" rx="3" fill="#ffffff" opacity="0.18"/>
  <line x1="400" y1="240" x2="440" y2="292" stroke="#F97B5B" stroke-width="1.5" opacity="0.5" stroke-dasharray="4 3"/>
  <!-- Delight point -->
  <rect x="160" y="400" width="280" height="120" rx="8" fill="#1A1D26"/>
  <rect x="180" y="420" width="80" height="10" rx="5" fill="#0ABFBC" opacity="0.6"/>
  <rect x="180" y="440" width="200" height="8" rx="4" fill="#ffffff" opacity="0.2"/>
  <rect x="180" y="456" width="160" height="8" rx="4" fill="#ffffff" opacity="0.15"/>
  <rect x="180" y="472" width="120" height="32" rx="16" fill="#0ABFBC" opacity="0.2"/>
  <rect x="160" y="400" width="280" height="120" rx="8" stroke="#0ABFBC" stroke-width="1.5" opacity="0.5"/>
  <!-- Annotation bubble 2 -->
  <rect x="460" y="400" width="220" height="80" rx="10" fill="#0ABFBC" opacity="0.1"/>
  <rect x="460" y="400" width="220" height="80" rx="10" stroke="#0ABFBC" stroke-width="1.5" opacity="0.5"/>
  <rect x="476" y="416" width="60" height="8" rx="4" fill="#0ABFBC" opacity="0.8"/>
  <rect x="476" y="432" width="160" height="6" rx="3" fill="#ffffff" opacity="0.2"/>
  <rect x="476" y="446" width="120" height="6" rx="3" fill="#ffffff" opacity="0.15"/>
  <line x1="460" y1="440" x2="440" y2="460" stroke="#0ABFBC" stroke-width="1.5" opacity="0.4" stroke-dasharray="4 3"/>
  <!-- Toolbar -->
  <rect x="1060" y="100" width="420" height="700" rx="16" fill="#161820" stroke="#252830" stroke-width="1"/>
  <rect x="1080" y="128" width="100" height="8" rx="4" fill="#0ABFBC" opacity="0.6"/>
  <!-- Tool buttons -->
  <rect x="1080" y="160" width="56" height="56" rx="10" fill="#F97B5B" opacity="0.15"/>
  <rect x="1080" y="160" width="56" height="56" rx="10" stroke="#F97B5B" stroke-width="1.5" opacity="0.5"/>
  <rect x="1148" y="160" width="56" height="56" rx="10" fill="#0ABFBC" opacity="0.1"/>
  <rect x="1148" y="160" width="56" height="56" rx="10" stroke="#0ABFBC" stroke-width="1" opacity="0.3"/>
  <rect x="1216" y="160" width="56" height="56" rx="10" fill="#1E2130"/>
  <rect x="1284" y="160" width="56" height="56" rx="10" fill="#1E2130"/>
  <!-- Annotation list -->
  <rect x="1080" y="244" width="360" height="1" fill="#252830"/>
  <rect x="1080" y="264" width="20" height="20" rx="4" fill="#F97B5B" opacity="0.3"/>
  <rect x="1112" y="268" width="120" height="6" rx="3" fill="#F97B5B" opacity="0.6"/>
  <rect x="1112" y="282" width="180" height="5" rx="2.5" fill="#ffffff" opacity="0.15"/>
  <rect x="1080" y="308" width="360" height="1" fill="#252830"/>
  <rect x="1080" y="328" width="20" height="20" rx="4" fill="#0ABFBC" opacity="0.3"/>
  <rect x="1112" y="332" width="120" height="6" rx="3" fill="#0ABFBC" opacity="0.6"/>
  <rect x="1112" y="346" width="200" height="5" rx="2.5" fill="#ffffff" opacity="0.12"/>
  <rect x="1080" y="372" width="360" height="1" fill="#252830"/>
  <rect x="1080" y="392" width="20" height="20" rx="4" fill="#1E2130"/>
  <rect x="1112" y="396" width="100" height="6" rx="3" fill="#ffffff" opacity="0.3"/>
  <rect x="1112" y="410" width="160" height="5" rx="2.5" fill="#ffffff" opacity="0.1"/>
  <text x="800" y="840" font-family="system-ui, -apple-system, sans-serif" font-size="18" fill="#ffffff" opacity="0.2" text-anchor="middle" letter-spacing="4">ONBOARDING ANNOTATOR · TOOL</text>
</svg>
