<svg xmlns="http://www.w3.org/2000/svg" viewBox="0 0 1600 900" fill="none">
  <rect width="1600" height="900" fill="#0F1117"/>
  <rect x="0" y="0" width="1600" height="56" fill="#161820"/>
  <rect x="24" y="20" width="80" height="16" rx="8" fill="#0ABFBC" opacity="0.7"/>
  <rect x="1400" y="18" width="60" height="20" rx="10" fill="#1E2130"/>
  <rect x="1320" y="18" width="60" height="20" rx="10" fill="#1E2130"/>
  <rect x="1240" y="18" width="60" height="20" rx="10" fill="#1E2130"/>
  <rect x="160" y="120" width="520" height="8" rx="4" fill="#ffffff" opacity="0.55"/>
  <rect x="160" y="144" width="400" height="8" rx="4" fill="#ffffff" opacity="0.3"/>
  <rect x="160" y="172" width="120" height="36" rx="8" fill="#0ABFBC"/>
  <rect x="296" y="172" width="120" height="36" rx="8" fill="#1E2130" stroke="#252830" stroke-width="1"/>
  <rect x="160" y="280" width="680" height="1" fill="#1E2130"/>
  <rect x="160" y="310" width="200" height="160" rx="12" fill="#161820" stroke="#252830" stroke-width="1"/>
  <rect x="172" y="322" width="176" height="90" rx="8" fill="#0ABFBC" opacity="0.08"/>
  <rect x="172" y="426" width="100" height="8" rx="4" fill="#ffffff" opacity="0.35"/>
  <rect x="172" y="440" width="140" height="6" rx="3" fill="#ffffff" opacity="0.15"/>
  <rect x="376" y="310" width="200" height="160" rx="12" fill="#161820" stroke="#252830" stroke-width="1"/>
  <rect x="388" y="322" width="176" height="90" rx="8" fill="#0ABFBC" opacity="0.06"/>
  <rect x="388" y="426" width="100" height="8" rx="4" fill="#ffffff" opacity="0.35"/>
  <rect x="388" y="440" width="140" height="6" rx="3" fill="#ffffff" opacity="0.15"/>
  <rect x="592" y="310" width="200" height="160" rx="12" fill="#161820" stroke="#252830" stroke-width="1"/>
  <rect x="604" y="322" width="176" height="90" rx="8" fill="#0ABFBC" opacity="0.04"/>
  <rect x="604" y="426" width="100" height="8" rx="4" fill="#ffffff" opacity="0.35"/>
  <rect x="604" y="440" width="140" height="6" rx="3" fill="#ffffff" opacity="0.15"/>
  <rect x="900" y="80" width="560" height="740" rx="16" fill="#161820" stroke="#252830" stroke-width="1"/>
  <rect x="920" y="100" width="520" height="340" rx="10" fill="#0ABFBC" opacity="0.05"/>
  <rect x="920" y="458" width="200" height="10" rx="5" fill="#ffffff" opacity="0.25"/>
  <rect x="920" y="478" width="340" height="8" rx="4" fill="#ffffff" opacity="0.12"/>
  <rect x="920" y="494" width="280" height="8" rx="4" fill="#ffffff" opacity="0.12"/>
  <rect x="920" y="522" width="80" height="24" rx="6" fill="#0ABFBC" opacity="0.3"/>
  <rect x="1012" y="522" width="80" height="24" rx="6" fill="#1E2130"/>
  <text x="800" y="840" font-family="system-ui, -apple-system, sans-serif" font-size="18" fill="#ffffff" opacity="0.2" text-anchor="middle" letter-spacing="4">PORTFOLIO V2 · SITE</text>
</svg>
