<svg xmlns="http://www.w3.org/2000/svg" viewBox="0 0 1600 900" fill="none">
  <rect width="1600" height="900" fill="#0F1117"/>
  <!-- Color palette section -->
  <rect x="120" y="120" width="680" height="340" rx="16" fill="#161820" stroke="#252830" stroke-width="1"/>
  <rect x="140" y="140" width="100" height="8" rx="4" fill="#0ABFBC" opacity="0.7"/>
  <!-- Color swatches -->
  <rect x="140" y="168" width="80" height="80" rx="10" fill="#0ABFBC"/>
  <rect x="232" y="168" width="80" height="80" rx="10" fill="#0ABFBC" opacity="0.7"/>
  <rect x="324" y="168" width="80" height="80" rx="10" fill="#0ABFBC" opacity="0.5"/>
  <rect x="416" y="168" width="80" height="80" rx="10" fill="#0ABFBC" opacity="0.3"/>
  <rect x="508" y="168" width="80" height="80" rx="10" fill="#0ABFBC" opacity="0.15"/>
  <rect x="600" y="168" width="80" height="80" rx="10" fill="#0ABFBC" opacity="0.06"/>
  <rect x="140" y="162" width="80" height="80" rx="10" stroke="#0ABFBC" stroke-width="2"/>
  <rect x="140" y="264" width="80" height="6" rx="3" fill="#0ABFBC" opacity="0.6"/>
  <rect x="232" y="264" width="80" height="6" rx="3" fill="#ffffff" opacity="0.2"/>
  <rect x="324" y="264" width="80" height="6" rx="3" fill="#ffffff" opacity="0.18"/>
  <rect x="416" y="264" width="80" height="6" rx="3" fill="#ffffff" opacity="0.15"/>
  <rect x="508" y="264" width="80" height="6" rx="3" fill="#ffffff" opacity="0.12"/>
  <rect x="600" y="264" width="80" height="6" rx="3" fill="#ffffff" opacity="0.1"/>
  <!-- Neutral palette -->
  <rect x="140" y="290" width="80" height="80" rx="10" fill="#1E1E2E"/>
  <rect x="232" y="290" width="80" height="80" rx="10" fill="#2A2A3E"/>
  <rect x="324" y="290" width="80" height="80" rx="10" fill="#3A3A52"/>
  <rect x="416" y="290" width="80" height="80" rx="10" fill="#6B6B8A"/>
  <rect x="508" y="290" width="80" height="80" rx="10" fill="#9B9BAA"/>
  <rect x="600" y="290" width="80" height="80" rx="10" fill="#C8C8D4"/>
  <!-- Spacing section -->
  <rect x="120" y="480" width="680" height="280" rx="16" fill="#161820" stroke="#252830" stroke-width="1"/>
  <rect x="140" y="500" width="100" height="8" rx="4" fill="#0ABFBC" opacity="0.6"/>
  <rect x="140" y="524" width="4" height="4" rx="2" fill="#0ABFBC" opacity="0.8"/>
  <rect x="148" y="522" width="200" height="4" rx="2" fill="#0ABFBC" opacity="0.2"/>
  <rect x="360" y="522" width="60" height="8" rx="4" fill="#ffffff" opacity="0.2"/>
  <rect x="140" y="540" width="8" height="8" rx="2" fill="#0ABFBC" opacity="0.8"/>
  <rect x="152" y="540" width="240" height="8" rx="4" fill="#0ABFBC" opacity="0.2"/>
  <rect x="360" y="540" width="60" height="8" rx="4" fill="#ffffff" opacity="0.2"/>
  <rect x="140" y="560" width="16" height="16" rx="3" fill="#0ABFBC" opacity="0.8"/>
  <rect x="160" y="562" width="300" height="8" rx="4" fill="#0ABFBC" opacity="0.2"/>
  <rect x="360" y="562" width="60" height="8" rx="4" fill="#ffffff" opacity="0.2"/>
  <rect x="140" y="588" width="24" height="24" rx="4" fill="#0ABFBC" opacity="0.8"/>
  <rect x="168" y="592" width="360" height="8" rx="4" fill="#0ABFBC" opacity="0.2"/>
  <rect x="360" y="592" width="60" height="8" rx="4" fill="#ffffff" opacity="0.2"/>
  <rect x="140" y="624" width="32" height="32" rx="5" fill="#0ABFBC" opacity="0.7"/>
  <rect x="176" y="630" width="420" height="8" rx="4" fill="#0ABFBC" opacity="0.18"/>
  <rect x="360" y="630" width="60" height="8" rx="4" fill="#ffffff" opacity="0.2"/>
  <!-- Type tokens panel -->
  <rect x="840" y="120" width="640" height="640" rx="16" fill="#161820" stroke="#252830" stroke-width="1"/>
  <rect x="860" y="148" width="100" height="8" rx="4" fill="#0ABFBC" opacity="0.6"/>
  <rect x="860" y="172" width="600" height="1" fill="#1E2130"/>
  <text x="860" y="220" font-family="system-ui, sans-serif" font-size="42" fill="#ffffff" opacity="0.55" font-weight="700">Display</text>
  <text x="860" y="268" font-family="system-ui, sans-serif" font-size="30" fill="#ffffff" opacity="0.4" font-weight="600">Heading</text>
  <text x="860" y="308" font-family="system-ui, sans-serif" font-size="22" fill="#ffffff" opacity="0.28" font-weight="500">Subheading</text>
  <text x="860" y="340" font-family="system-ui, sans-serif" font-size="16" fill="#ffffff" opacity="0.2" font-weight="400">Body</text>
  <text x="860" y="364" font-family="system-ui, sans-serif" font-size="12" fill="#ffffff" opacity="0.15" font-weight="400">Caption</text>
  <rect x="860" y="380" width="600" height="1" fill="#1E2130"/>
  <!-- Token rows -->
  <rect x="860" y="400" width="200" height="8" rx="4" fill="#7C6FF7" opacity="0.6"/>
  <rect x="1260" y="398" width="160" height="12" rx="6" fill="#7C6FF7" opacity="0.15"/>
  <rect x="860" y="424" width="160" height="8" rx="4" fill="#7C6FF7" opacity="0.5"/>
  <rect x="860" y="448" width="180" height="8" rx="4" fill="#7C6FF7" opacity="0.4"/>
  <rect x="860" y="472" width="120" height="8" rx="4" fill="#7C6FF7" opacity="0.3"/>
  <rect x="860" y="496" width="100" height="8" rx="4" fill="#7C6FF7" opacity="0.25"/>
  <text x="800" y="820" font-family="system-ui, -apple-system, sans-serif" font-size="18" fill="#ffffff" opacity="0.2" text-anchor="middle" letter-spacing="4">TOKEN STUDIO · DEV TOOL</text>
</svg>
